<svg xmlns="http://www.w3.org/2000/svg" width="430" height="430" fill="none" viewBox="0 0 430 430"><g stroke-linecap="round" stroke-linejoin="round" stroke-miterlimit="10" stroke-width="12"><path stroke="#121331" d="M215 382.5c92.508 0 167.5-74.992 167.5-167.5S307.508 47.5 215 47.5 47.5 122.492 47.5 215 122.492 382.5 215 382.5"/><path stroke="#08a88a" d="M285 301.573c12.508-15.457 20-35.14 20-56.573v-60c0-49.706-40.294-90-90-90-18.501 0-35.699 5.583-50 15.155m100 209.69C250.699 329.417 233.501 335 215 335c-49.706 0-90-40.294-90-90v-60c0-21.433 7.492-41.116 20-56.573"/><path stroke="#08a88a" d="M195 301.586A59.9 59.9 0 0 0 215 305c33.137 0 60-26.863 60-60v-60c0-17.77-7.725-33.736-20-44.722m-80 149.444c-12.275-10.986-20-26.952-20-44.722v-60c0-33.137 26.863-60 60-60a59.9 59.9 0 0 1 20 3.414"/><path stroke="#08a88a" d="M185 245c0 16.569 13.431 30 30 30s30-13.431 30-30v-30m0-30c0-16.569-13.431-30-30-30s-30 13.431-30 30v30m30-30v60"/></g></svg>